<?xml version="1.0" encoding="UTF-8"?>
<svg version="1.1" xmlns="http://www.w3.org/2000/svg" width="500" height="500">
<path d="M0 0 C1.34375 2.51953125 1.34375 2.51953125 2.5 5.8125 C2.91636719 6.98039063 3.33273438 8.14828125 3.76171875 9.3515625 C4.17035156 10.55554688 4.57898438 11.75953125 5 13 C5.39832031 14.14210937 5.79664063 15.28421875 6.20703125 16.4609375 C9 24.61285336 9 24.61285336 9 27 C9.66 27 10.32 27 11 27 C11.15855469 26.37996094 11.31710938 25.75992188 11.48046875 25.12109375 C13.01219199 19.30731548 14.73418362 13.5802972 16.625 7.875 C16.84309326 7.21169678 17.06118652 6.54839355 17.28588867 5.86499023 C18.87616161 1.12383839 18.87616161 1.12383839 20 0 C21.97154429 -0.28745638 23.95340874 -0.50584123 25.9375 -0.6875 C27.01902344 -0.79449219 28.10054687 -0.90148437 29.21484375 -1.01171875 C32 -1 32 -1 34 1 C34.25396729 2.9354248 34.25396729 2.9354248 34.25878906 5.32617188 C34.26509338 6.22049927 34.27139771 7.11482666 34.27789307 8.03625488 C34.2738446 9.00397827 34.26979614 9.97170166 34.265625 10.96875 C34.26849518 12.45562317 34.26849518 12.45562317 34.27142334 13.97253418 C34.27278585 16.07072198 34.26908482 18.16891819 34.26074219 20.26708984 C34.25004371 23.48684546 34.26063536 26.70604308 34.2734375 29.92578125 C34.27211592 31.96093874 34.26955355 33.99609588 34.265625 36.03125 C34.26967346 36.99897339 34.27372192 37.96669678 34.27789307 38.96374512 C34.27158875 39.85807251 34.26528442 40.7523999 34.25878906 41.67382812 C34.25719788 42.46277466 34.25560669 43.25172119 34.25396729 44.0645752 C34 46 34 46 32 48 C29.36 47.67 26.72 47.34 24 47 C23.67 39.74 23.34 32.48 23 25 C20.39060319 30.21879361 18.60521832 33.85166539 17.125 39.1875 C15.42411202 44.56910957 13.73634486 46.98596236 9 50 C4.42001711 46.37249143 3.10346063 41.70469367 1.25 36.375 C0.93417969 35.50359375 0.61835938 34.6321875 0.29296875 33.734375 C-2 27.32200352 -2 27.32200352 -2 25 C-2.66 25 -3.32 25 -4 25 C-3.99476318 25.62567871 -3.98952637 26.25135742 -3.98413086 26.89599609 C-3.96338382 29.72232057 -3.95034714 32.54862905 -3.9375 35.375 C-3.92912109 36.35984375 -3.92074219 37.3446875 -3.91210938 38.359375 C-3.90888672 39.30039063 -3.90566406 40.24140625 -3.90234375 41.2109375 C-3.89710693 42.08024902 -3.89187012 42.94956055 -3.88647461 43.84521484 C-4 46 -4 46 -5 48 C-10.625 48.25 -10.625 48.25 -14 46 C-14.36076355 44.01315308 -14.36076355 44.01315308 -14.34057617 41.55029297 C-14.34034958 40.62948944 -14.34012299 39.70868591 -14.33988953 38.75997925 C-14.31666374 37.26617233 -14.31666374 37.26617233 -14.29296875 35.7421875 C-14.28872391 34.72399933 -14.28447906 33.70581116 -14.28010559 32.6567688 C-14.26327579 29.39591327 -14.22561546 26.13566959 -14.1875 22.875 C-14.17245874 20.66797766 -14.15876937 18.46094566 -14.14648438 16.25390625 C-14.1133583 10.83572777 -14.06311653 5.41790758 -14 0 C-12.41773035 -0.19627391 -10.83410729 -0.38165538 -9.25 -0.5625 C-8.36828125 -0.66691406 -7.4865625 -0.77132812 -6.578125 -0.87890625 C-4.07209765 -0.99661359 -2.3316768 -0.90939285 0 0 Z " fill="#CFC4E5" transform="translate(137,201)"/>
<path d="M0 0 C2.73850142 3.07246501 4.05960097 4.65897812 3.875 8.8125 C3 11 3 11 1 12 C-2.3125 12.3125 -2.3125 12.3125 -6 12 C-6.78375 11.34 -7.5675 10.68 -8.375 10 C-12.13480097 7.13538974 -15.43182901 7.64171208 -20 8 C-20.33 9.65 -20.66 11.3 -21 13 C-20.42032471 13.16081055 -19.84064941 13.32162109 -19.2434082 13.48730469 C-16.59614387 14.22922664 -13.95445802 14.98940863 -11.3125 15.75 C-10.40048828 16.00265625 -9.48847656 16.2553125 -8.54882812 16.515625 C-3.5981582 17.95581989 0.28235909 19.23747811 4 23 C6.56430755 28.01205566 6.18737502 32.64691762 5 38 C3.51561442 41.59377562 2.45775925 42.72136393 -0.875 44.75 C-9.11777579 48.04711032 -18.62224073 47.98639368 -27 45 C-30.2174944 43.0736684 -32.77793145 41.03561278 -35 38 C-35.5 34.0625 -35.5 34.0625 -35 31 C-30.05 30.505 -30.05 30.505 -25 30 C-24.7525 30.804375 -24.505 31.60875 -24.25 32.4375 C-23.30795098 35.12465533 -23.30795098 35.12465533 -21.20703125 35.64453125 C-18.92552821 36.01199457 -16.74816434 36.20308296 -14.4375 36.25 C-13.29087891 36.28867187 -13.29087891 36.28867187 -12.12109375 36.328125 C-9.50276756 35.92308006 -8.65481299 35.00903813 -7 33 C-7.41328417 30.99132643 -7.41328417 30.99132643 -9 29 C-11.78322907 27.9900519 -14.39004752 27.19696321 -17.25 26.5 C-29.77579086 23.38466608 -29.77579086 23.38466608 -33.4375 17.8125 C-34.45503694 12.72481531 -33.72750146 8.04609786 -32 3.1875 C-24.14541845 -5.40344857 -9.68550175 -5.28300095 0 0 Z " fill="#010101" transform="translate(156,255)"/>
<path d="M0 0 C1.45742463 -0.08096803 2.91612807 -0.13917774 4.375 -0.1875 C5.18710938 -0.22230469 5.99921875 -0.25710938 6.8359375 -0.29296875 C7.55007812 -0.19628906 8.26421875 -0.09960938 9 0 C9.66 0.99 10.32 1.98 11 3 C11.54785156 2.51402344 12.09570312 2.02804687 12.66015625 1.52734375 C16.77274369 -1.15716658 21.26314835 -0.61938031 26 0 C29.97849234 2.07213143 31.86144551 4.67259481 33.4296875 8.890625 C35.63898792 17.06201011 35.30612243 24.19347302 32 32 C31.34 32.99 30.68 33.98 30 35 C29.34 35 28.68 35 28 35 C28 35.66 28 36.32 28 37 C22.03726175 39.81573751 16.3322014 38.75822476 10 38 C10.01160156 38.92683594 10.02320313 39.85367188 10.03515625 40.80859375 C10.04417969 42.00613281 10.05320313 43.20367187 10.0625 44.4375 C10.07410156 45.63246094 10.08570313 46.82742188 10.09765625 48.05859375 C10 51 10 51 9 52 C7.48071962 52.07179964 5.95832518 52.08392007 4.4375 52.0625 C3.61121094 52.05347656 2.78492188 52.04445313 1.93359375 52.03515625 C1.29550781 52.02355469 0.65742188 52.01195312 0 52 C-1.96606435 47.88329404 -2.24578527 44.5595286 -2.23046875 40.01953125 C-2.23001053 39.36546799 -2.22955231 38.71140472 -2.2290802 38.03752136 C-2.22607374 36.66342337 -2.21823585 35.2893283 -2.20581055 33.9152832 C-2.18746634 31.80863441 -2.18530171 29.70242376 -2.18554688 27.59570312 C-2.14772503 17.29545005 -2.14772503 17.29545005 -1 15 C-0.95459048 13.39647617 -0.96153031 11.79120533 -1 10.1875 C-1.04105037 6.64177406 -0.92018185 3.45068194 0 0 Z M12.8125 10.4375 C10.19163755 14.14285725 9.81136616 17.51051449 10 22 C10.60912546 24.90547454 11.37757096 26.40411354 13 29 C15.37883489 30.3259856 15.37883489 30.3259856 18 30 C20.62481185 28.49523774 21.79976438 27.66860285 22.6796875 24.73046875 C23.06746594 19.6815934 23.23283313 15.70070134 21 11 C20.34 10.34 19.68 9.68 19 9 C15.12087883 8.63388141 15.12087883 8.63388141 12.8125 10.4375 Z " fill="#000000" transform="translate(168,263)"/>
<path d="M0 0 C3.3 0 6.6 0 10 0 C11.29517481 4.9763004 11.17980559 9.93797999 11.203125 15.04296875 C11.20882507 16.00777664 11.21452515 16.97258453 11.22039795 17.96662903 C11.2298209 19.99979564 11.23637115 22.03297733 11.24023438 24.06616211 C11.24999828 27.18695142 11.28107019 30.30709785 11.3125 33.42773438 C11.31902481 35.40364192 11.32427733 37.37955417 11.328125 39.35546875 C11.3404718 40.2919072 11.3528186 41.22834564 11.36553955 42.19316101 C11.36253845 43.05778458 11.35953735 43.92240814 11.35644531 44.81323242 C11.36191376 45.95643196 11.36191376 45.95643196 11.36749268 47.12272644 C11.24622009 47.74222672 11.12494751 48.36172699 11 49 C7.37040964 51.41972691 6.22402151 51.0646202 2 50.5625 C-2.56816421 50.00377645 -2.56816421 50.00377645 -7 51 C-12.21481396 51.39357087 -15.68830816 51.06609197 -20 48 C-24.11200427 41.8319936 -25.71545197 35.38866761 -25 28 C-23.75420042 22.1143327 -21.98992959 17.6592817 -17 14 C-11.21660682 11.41857129 -6.90359468 12.10241599 -1 14 C-0.67 9.38 -0.34 4.76 0 0 Z M-11.625 23.16015625 C-13.94597979 27.95377075 -13.68350775 32.79095148 -13 38 C-11.24651469 41.20840065 -11.24651469 41.20840065 -9 43 C-6.06556598 42.73343428 -6.06556598 42.73343428 -3 42 C-0.57063165 38.35594748 -0.67052658 36.401183 -0.625 32.0625 C-0.59664063 30.83660156 -0.56828125 29.61070312 -0.5390625 28.34765625 C-0.72436259 24.94282618 -0.72436259 24.94282618 -2.86328125 22.59375 C-4.9165518 20.83382769 -4.9165518 20.83382769 -7.5625 20.4375 C-10.18834606 20.76812424 -10.18834606 20.76812424 -11.625 23.16015625 Z " fill="#D0C5E5" transform="translate(260,198)"/>
<path d="M0 0 C3.32404095 1.18147312 5.27488855 2.96412649 7.3125 5.875 C9.07570865 11.32491763 9.12901698 16.71593993 9.0625 22.375 C9.05798828 23.11105469 9.05347656 23.84710938 9.04882812 24.60546875 C9.03715142 26.40368158 9.01922011 28.20185197 9 30 C10.32 30 11.64 30 13 30 C13.1875 33.375 13.1875 33.375 13 37 C10 39 10 39 6.625 38.75 C3 38 3 38 0.5625 36.75 C-2.44041886 35.87109692 -3.03133501 36.24170727 -5.8125 37.4375 C-10.38636276 39.37060426 -13.16832294 39.18811731 -18 38 C-20.9375 36.5 -20.9375 36.5 -23 34 C-24.37251999 29.59259108 -24.48088563 25.47196629 -22.875 21.125 C-20.78563312 17.64272186 -19.59047264 16.76277725 -16 15 C-12.66796875 14.26953125 -12.66796875 14.26953125 -9.1875 13.8125 C-8.02605469 13.65394531 -6.86460937 13.49539063 -5.66796875 13.33203125 C-4.78753906 13.22246094 -3.90710938 13.11289062 -3 13 C-3.66 12.01 -4.32 11.02 -5 10 C-6.32 10 -7.64 10 -9 10 C-9.928125 10.99 -9.928125 10.99 -10.875 12 C-13 14 -13 14 -16.0625 14.4375 C-19.2104846 13.96865123 -20.12785559 13.49619254 -22 11 C-20.75892597 6.03570389 -19.23893588 3.86128172 -15 1 C-10.58522662 -1.20738669 -4.80526504 -0.42622642 0 0 Z M-12 25 C-11.6814823 27.10820797 -11.6814823 27.10820797 -11 29 C-9.21858253 29.86358623 -9.21858253 29.86358623 -7 30 C-4.66666667 28.33333333 -4.66666667 28.33333333 -3 26 C-3 25.01 -3 24.02 -3 23 C-8.0205829 22.49708619 -8.0205829 22.49708619 -12 25 Z " fill="#010101" transform="translate(229,263)"/>
<path d="M0 0 C4.11971729 2.02372078 6.50557065 4.20710058 9 8 C9.765625 10.40234375 9.765625 10.40234375 10.25 12.9375 C10.42015625 13.77152344 10.5903125 14.60554688 10.765625 15.46484375 C11.01829977 18.19794254 10.66389792 20.34915046 10 23 C2.96094956 23.93854006 -3.90272572 24.10808032 -11 24 C-10.01 25.65 -9.02 27.3 -8 29 C-5.6568787 28.74438677 -3.32156597 28.40729228 -1 28 C-0.67 27.34 -0.34 26.68 0 26 C6.0546875 25.8046875 6.0546875 25.8046875 8 26 C8.66 26.66 9.32 27.32 10 28 C7.79497693 34.49256791 7.79497693 34.49256791 4.0625 36.875 C-2.15462698 39.15884257 -7.18726416 39.90579629 -13.6875 37.8125 C-18.13275042 35.38019317 -20.09371298 32.90320275 -22.25 28.375 C-23.734708 21.693814 -24.05715444 14.25988766 -21 8 C-15.40619437 -0.20293052 -9.53047514 -1.04618335 0 0 Z M-8 9 C-8.12375 9.639375 -8.2475 10.27875 -8.375 10.9375 C-8.58125 11.618125 -8.7875 12.29875 -9 13 C-9.99 13.495 -9.99 13.495 -11 14 C-7.37 14 -3.74 14 0 14 C-0.66 13.67 -1.32 13.34 -2 13 C-3.125 10.9375 -3.125 10.9375 -4 9 C-5.32 9 -6.64 9 -8 9 Z " fill="#010101" transform="translate(303,263)"/>
<path d="M0 0 C2.05078125 0.03255208 4.1015625 0.06510417 6.15234375 0.09765625 C6.48234375 1.08765625 6.81234375 2.07765625 7.15234375 3.09765625 C7.93609375 2.60265625 8.71984375 2.10765625 9.52734375 1.59765625 C14.21843312 -0.34348418 18.14247101 -0.75629933 23.15234375 0.09765625 C26.87139866 1.81238443 28.7914673 4.1725228 30.2890625 8.01171875 C31.68714124 13.38183653 31.48133397 18.89912576 31.46484375 24.41015625 C31.48095703 25.50650391 31.49707031 26.60285156 31.51367188 27.73242188 C31.51431641 28.77720703 31.51496094 29.82199219 31.515625 30.8984375 C31.51860596 31.84887939 31.52158691 32.79932129 31.5246582 33.77856445 C31.40179443 34.54386475 31.27893066 35.30916504 31.15234375 36.09765625 C27.68310494 38.41048212 26.230288 38.52244211 22.15234375 38.09765625 C20.49462891 36.92236328 20.49462891 36.92236328 19.15234375 35.09765625 C18.73583984 32.56982422 18.73583984 32.56982422 18.67578125 29.58984375 C18.64484375 28.52121094 18.61390625 27.45257813 18.58203125 26.3515625 C18.56398437 25.23652344 18.5459375 24.12148437 18.52734375 22.97265625 C18.47657381 20.76162532 18.42209418 18.55067536 18.36328125 16.33984375 C18.34571777 15.35870605 18.3281543 14.37756836 18.31005859 13.36669922 C18.40405464 11.13057576 18.40405464 11.13057576 17.15234375 10.09765625 C14.73751962 9.59705709 14.73751962 9.59705709 12.15234375 10.09765625 C7.61819558 15.25009736 8.68549487 22.24982587 8.625 28.70117188 C8.60308594 29.61962891 8.58117187 30.53808594 8.55859375 31.484375 C8.55150391 32.32186279 8.54441406 33.15935059 8.53710938 34.0222168 C8.41013672 34.70711182 8.28316406 35.39200684 8.15234375 36.09765625 C5.15234375 38.09765625 5.15234375 38.09765625 1.52734375 37.78515625 C-1.84765625 37.09765625 -1.84765625 37.09765625 -2.84765625 36.09765625 C-2.948571 33.51576179 -2.98737124 30.96119125 -2.98046875 28.37890625 C-2.98142548 27.6058313 -2.9823822 26.83275635 -2.98336792 26.03625488 C-2.98404966 24.39868081 -2.98219582 22.76110406 -2.97802734 21.12353516 C-2.97267896 18.60833704 -2.97797251 16.09331752 -2.984375 13.578125 C-2.98371422 11.99088502 -2.98243305 10.40364515 -2.98046875 8.81640625 C-2.98249298 8.05912231 -2.98451721 7.30183838 -2.98660278 6.52160645 C-2.9578335 0.15633369 -2.9578335 0.15633369 0 0 Z " fill="#CFC4E4" transform="translate(199.84765625,210.90234375)"/>
<path d="M0 0 C2.76398217 2.62578306 4.73606909 4.98825265 6.5 8.375 C6.375 10.6875 6.375 10.6875 5.5 12.375 C2.45016004 13.89991998 -0.1423369 13.61062548 -3.5 13.375 C-5.4375 12 -5.4375 12 -6.5 10.375 C-6.5 9.715 -6.5 9.055 -6.5 8.375 C-9.41634129 8.1247843 -9.41634129 8.1247843 -12.5 8.375 C-14.87184142 11.93276212 -14.79824394 13.65520607 -14.8125 17.875 C-14.82925781 19.0196875 -14.84601563 20.164375 -14.86328125 21.34375 C-14.74950987 24.34894522 -14.74950987 24.34894522 -13.13671875 26.28125 C-11.48165647 27.60650655 -11.48165647 27.60650655 -9 27.375 C-5.75211559 26.07584623 -5.00139226 24.45680517 -3.5 21.375 C-0.2 21.705 3.1 22.035 6.5 22.375 C6.32596763 26.72580916 5.79723588 29.53131716 2.8125 32.6875 C-1.75009991 36.75157355 -6.3792487 37.79634199 -12.4765625 37.6328125 C-16.6579906 37.10004367 -20.1452332 35.46755387 -23.4375 32.8125 C-24.5 31.375 -24.5 31.375 -24.5 29.375 C-25.16 29.375 -25.82 29.375 -26.5 29.375 C-29.1908319 21.75097627 -28.84765132 13.81166621 -25.609375 6.3125 C-20.06866875 -2.48227182 -9.10291692 -4.22635428 0 0 Z " fill="#010101" transform="translate(270.5,264.625)"/>
<path d="M0 0 C3.47708091 -0.55660781 6.54306352 -0.75442859 10 0 C18.01180612 7.43363455 20.20015548 19.42010659 20.92919922 29.83300781 C21.29348559 40.98268297 19.15775561 53.38870314 12.75 62.6875 C9.92604133 65.06219252 9.29307407 65.39885637 5.8125 65.5625 C3.9253125 65.2840625 3.9253125 65.2840625 2 65 C1.34 64.01 0.68 63.02 0 62 C0.48210937 61.11699219 0.96421875 60.23398437 1.4609375 59.32421875 C9.33358778 44.52388489 10.45408047 32.22993706 6 16 C4.68592242 11.91625121 3.00693635 8.00027462 1.3125 4.0625 C0 1 0 1 0 0 Z " fill="#010101" transform="translate(355,250)"/>
<path d="M0 0 C0.96401239 8.00474576 1.16479654 16.00764058 1.25 24.0625 C1.27126953 25.08609619 1.29253906 26.10969238 1.31445312 27.16430664 C1.31896484 28.13231201 1.32347656 29.10031738 1.328125 30.09765625 C1.34214355 31.40488647 1.34214355 31.40488647 1.35644531 32.73852539 C0.92216917 35.49379929 0.2359099 36.37284179 -2 38 C-6.07794425 38.42478586 -7.53076119 38.31282587 -11 36 C-11.27937074 33.31631871 -11.3721651 30.86635809 -11.328125 28.18359375 C-11.32625183 27.41193375 -11.32437866 26.64027374 -11.32244873 25.8452301 C-11.31572316 24.21358929 -11.30179858 22.58196473 -11.28125 20.95043945 C-11.2500811 18.44402196 -11.24027923 15.93823273 -11.234375 13.43164062 C-11.22520585 11.84895061 -11.21483035 10.26626704 -11.203125 8.68359375 C-11.19887512 7.92944687 -11.19462524 7.17529999 -11.19024658 6.39830017 C-11.11715647 1.11715647 -11.11715647 1.11715647 -10 0 C-3.57142857 -1.19047619 -3.57142857 -1.19047619 0 0 Z " fill="#D2C7E7" transform="translate(189,211)"/>
<path d="M0 0 C3.63 0 7.26 0 11 0 C11 3.63 11 7.26 11 11 C5.64555971 13.14177612 4.96650782 13.07900327 0 11 C0 7.37 0 3.74 0 0 Z " fill="#010101" transform="translate(339,289)"/>
<path d="M0 0 C3.63 0 7.26 0 11 0 C11.92470553 4.71599818 12.22923777 7.67265609 10 12 C8.52093108 12.02689216 7.04172517 12.04634621 5.5625 12.0625 C4.32693359 12.07990234 4.32693359 12.07990234 3.06640625 12.09765625 C1 12 1 12 0 11 C-0.14310287 7.3308423 -0.04221662 3.67284559 0 0 Z " fill="#010101" transform="translate(339,265)"/>
<path d="M0 0 C1.47906892 -0.02689216 2.95827483 -0.04634621 4.4375 -0.0625 C5.26121094 -0.07410156 6.08492187 -0.08570313 6.93359375 -0.09765625 C9 0 9 0 10 1 C10.37086093 6.8410596 10.37086093 6.8410596 10 9 C9.01 9.66 8.02 10.32 7 11 C0.55555556 9.55555556 0.55555556 9.55555556 -1 8 C-1.23529412 2.47058824 -1.23529412 2.47058824 0 0 Z " fill="#D1C8E4" transform="translate(179,198)"/>
<path d="M0 0 C-0.99 0.495 -0.99 0.495 -2 1 C-2.33 1.99 -2.66 2.98 -3 4 C-3.33 3.34 -3.66 2.68 -4 2 C-4.99 2 -5.98 2 -7 2 C-7.33 2.66 -7.66 3.32 -8 4 C-8.99 4 -9.98 4 -11 4 C-11 2.68 -11 1.36 -11 0 C-3.57142857 -1.28571429 -3.57142857 -1.28571429 0 0 Z " fill="#D4CBE9" transform="translate(170,201)"/>
<path d="M0 0 C1.47906892 -0.02689216 2.95827483 -0.04634621 4.4375 -0.0625 C5.26121094 -0.07410156 6.08492187 -0.08570313 6.93359375 -0.09765625 C9 0 9 0 10 1 C10.04092937 3.33297433 10.04241723 5.66705225 10 8 C8 5 8 5 7 2 C6.01 2.33 5.02 2.66 4 3 C4 2.34 4 1.68 4 1 C2.68 1.33 1.36 1.66 0 2 C0 1.34 0 0.68 0 0 Z " fill="#CAC4DB" transform="translate(179,198)"/>
<path d="M0 0 C0.33 0.66 0.66 1.32 1 2 C2.65 1.67 4.3 1.34 6 1 C6.33 1.99 6.66 2.98 7 4 C4.69 4.33 2.38 4.66 0 5 C0 3.35 0 1.7 0 0 Z " fill="#C6BDD8" transform="translate(145,226)"/>
<path d="M0 0 C2 2 2 2 2.125 5.625 C2.08375 6.73875 2.0425 7.8525 2 9 C1.34 9 0.68 9 0 9 C-0.87890625 2.84765625 -0.87890625 2.84765625 -1 1 C-0.67 0.67 -0.34 0.34 0 0 Z " fill="#C7C0DD" transform="translate(160,216)"/>
<path d="M0 0 C4.75 0.75 4.75 0.75 7 3 C6.01 3.66 5.02 4.32 4 5 C2.64567325 3.68799596 1.31266518 2.35368596 0 1 C0 0.67 0 0.34 0 0 Z " fill="#AEA9BF" transform="translate(142,246)"/>
<path d="" fill="#000000" transform="translate(0,0)"/>
<path d="" fill="#000000" transform="translate(0,0)"/>
</svg>
